<?xml version="1.0" encoding="UTF-8"?>
<!DOCTYPE svg PUBLIC "-//W3C//DTD SVG 1.1//EN" "http://www.w3.org/Graphics/SVG/1.1/DTD/svg11.dtd">
<svg xmlns="http://www.w3.org/2000/svg" version="1.1" width="1125px" height="142px" style="shape-rendering:geometricPrecision; text-rendering:geometricPrecision; image-rendering:optimizeQuality; fill-rule:evenodd; clip-rule:evenodd" xmlns:xlink="http://www.w3.org/1999/xlink">
<g><path style="opacity:0.914" fill="#fefffe" d="M 777.5,5.5 C 778.5,5.5 779.5,5.5 780.5,5.5C 780.333,25.1695 780.5,44.8362 781,64.5C 791.03,54.6012 802.863,51.4346 816.5,55C 826.052,60.2569 830.885,68.4236 831,79.5C 831.333,94.5 831.667,109.5 832,124.5C 834.654,127.87 838.154,129.204 842.5,128.5C 842.5,130.833 842.5,133.167 842.5,135.5C 829.833,135.5 817.167,135.5 804.5,135.5C 804.5,133.167 804.5,130.833 804.5,128.5C 808.846,129.204 812.346,127.87 815,124.5C 817,108.833 817,93.1667 815,77.5C 811.104,65.8581 803.271,62.0248 791.5,66C 787.208,67.3957 783.708,69.8957 781,73.5C 780.333,90.1667 780.333,106.833 781,123.5C 783.532,127.907 787.365,129.574 792.5,128.5C 792.5,130.833 792.5,133.167 792.5,135.5C 779.167,135.5 765.833,135.5 752.5,135.5C 752.5,133.167 752.5,130.833 752.5,128.5C 757.126,129.3 760.96,127.966 764,124.5C 765.131,107.209 765.631,89.8754 765.5,72.5C 765.333,56.8333 765.167,41.1667 765,25.5C 763.75,19.4357 759.917,16.6024 753.5,17C 751.968,14.67 752.302,12.67 754.5,11C 762.545,10.2289 770.212,8.39555 777.5,5.5 Z"/></g>
<g><path style="opacity:0.903" fill="#fefffe" d="M 475.5,13.5 C 478.961,12.8895 481.628,14.0561 483.5,17C 510.5,17.6667 537.5,17.6667 564.5,17C 566.116,16.3848 567.449,15.3848 568.5,14C 570.473,13.5045 572.473,13.3379 574.5,13.5C 574.6,24.5087 574.934,35.5087 575.5,46.5C 573.208,46.7564 571.041,46.4231 569,45.5C 567.544,38.4197 564.377,32.253 559.5,27C 550.568,25.6187 541.568,25.1187 532.5,25.5C 532.333,57.5017 532.5,89.5017 533,121.5C 533.774,123.939 535.274,125.773 537.5,127C 541.751,128.195 546.085,128.695 550.5,128.5C 550.5,130.833 550.5,133.167 550.5,135.5C 532.833,135.5 515.167,135.5 497.5,135.5C 497.5,133.167 497.5,130.833 497.5,128.5C 501.915,128.695 506.249,128.195 510.5,127C 512.815,125.891 514.315,124.057 515,121.5C 515.5,89.5017 515.667,57.5017 515.5,25.5C 506.765,25.1241 498.098,25.6241 489.5,27C 484.343,32.1386 480.843,38.3053 479,45.5C 476.959,46.4231 474.792,46.7564 472.5,46.5C 473.324,35.434 474.324,24.434 475.5,13.5 Z"/></g>
<g><path style="opacity:0.945" fill="#fefffe" d="M 17.5,17.5 C 41.5313,17.0838 65.5313,17.5838 89.5,19C 111.32,25.4695 118.82,39.6362 112,61.5C 107.631,69.5373 101.131,75.0373 92.5,78C 101.548,95.3744 112.548,111.374 125.5,126C 127.842,127.171 130.176,128.338 132.5,129.5C 131.811,131.444 131.311,133.444 131,135.5C 130.275,136.059 129.442,136.392 128.5,136.5C 121.824,135.777 115.157,134.943 108.5,134C 103.349,133.09 98.682,131.09 94.5,128C 84.9554,115.756 76.7887,102.589 70,88.5C 66.2842,85.9555 62.1176,84.6222 57.5,84.5C 57.1057,96.8863 57.6057,109.22 59,121.5C 60.1094,123.815 61.9427,125.315 64.5,126C 71.3572,125.478 74.0238,128.645 72.5,135.5C 54.1667,135.5 35.8333,135.5 17.5,135.5C 17.5,132.833 17.5,130.167 17.5,127.5C 21.2293,126.987 24.896,126.154 28.5,125C 30.317,123.2 31.4837,121.034 32,118.5C 32.1667,104.5 32.3333,90.5 32.5,76.5C 32.6349,61.1153 32.1349,45.782 31,30.5C 27.3967,26.633 22.8967,24.9663 17.5,25.5C 17.5,22.8333 17.5,20.1667 17.5,17.5 Z M 60.5,26.5 C 77.8438,25.3398 86.8438,33.5064 87.5,51C 86.6298,69.9659 76.6298,78.4659 57.5,76.5C 57.3334,61.4963 57.5001,46.4963 58,31.5C 58.3661,29.5483 59.1995,27.8816 60.5,26.5 Z"/></g>
<g><path style="opacity:0.915" fill="#fefffe" d="M 243.5,50.5 C 245.199,50.3398 246.866,50.5065 248.5,51C 249.716,52.7398 251.382,53.7398 253.5,54C 270.5,54.3333 287.5,54.6667 304.5,55C 305.357,55.6891 306.023,56.5224 306.5,57.5C 293.626,80.0817 280.626,102.582 267.5,125C 285.065,129.383 297.398,123.383 304.5,107C 307.18,106.665 309.513,107.499 311.5,109.5C 308.833,117.833 306.167,126.167 303.5,134.5C 281.841,135.666 260.174,135.833 238.5,135C 235.4,133.332 234.9,131.165 237,128.5C 250.43,107.56 263.263,86.2268 275.5,64.5C 269.126,63.1806 262.792,63.3473 256.5,65C 254.413,65.7922 252.579,66.9588 251,68.5C 248.083,72.6661 245.416,76.9994 243,81.5C 240.993,80.3313 238.827,79.6646 236.5,79.5C 238.964,69.8423 241.297,60.1757 243.5,50.5 Z"/></g>
<g><path style="opacity:0.929" fill="#fefffe" d="M 179.5,52.5 C 198.636,50.1385 210.802,58.1385 216,76.5C 219.488,86.6651 215.988,91.1651 205.5,90C 193.185,90.9912 180.852,91.4912 168.5,91.5C 169.034,110.538 178.7,119.705 197.5,119C 203.058,117.554 208.058,115.054 212.5,111.5C 215.021,113.26 215.854,115.593 215,118.5C 198.89,138.99 179.723,142.49 157.5,129C 143.72,113.751 140.887,96.5846 149,77.5C 155.746,64.9137 165.913,56.5804 179.5,52.5 Z M 180.5,60.5 C 188.259,61.7674 192.426,66.4341 193,74.5C 193.667,76.5 193.667,78.5 193,80.5C 185.24,81.4341 177.406,82.1007 169.5,82.5C 169.477,73.2123 173.144,65.8789 180.5,60.5 Z"/></g>
<g><path style="opacity:0.924" fill="#fefffe" d="M 362.5,52.5 C 372.816,51.2837 381.649,54.2837 389,61.5C 390.861,63.8877 392.194,66.5544 393,69.5C 394.237,85.4611 394.904,101.461 395,117.5C 397.535,121.897 400.869,122.563 405,119.5C 406.03,121.588 406.863,123.755 407.5,126C 401.359,129.907 395.025,133.574 388.5,137C 380.797,137.482 375.131,134.315 371.5,127.5C 366.124,131.188 360.458,134.354 354.5,137C 334.85,136.34 326.35,126.173 329,106.5C 331.232,101.269 335.065,97.7694 340.5,96C 350.445,92.8521 360.111,89.0188 369.5,84.5C 370.853,78.7771 370.686,73.1104 369,67.5C 364.144,61.2398 358.81,60.9065 353,66.5C 351.053,70.2842 349.72,74.2842 349,78.5C 348.215,80.286 347.049,81.786 345.5,83C 337.167,85.1698 331.834,82.1698 329.5,74C 330,72.5 330.5,71 331,69.5C 340.344,61.5797 350.844,55.9131 362.5,52.5 Z M 369.5,92.5 C 370.822,101.675 370.822,111.008 369.5,120.5C 359.684,123.741 354.018,120.074 352.5,109.5C 353.18,107.111 354.014,104.778 355,102.5C 359.639,98.7738 364.472,95.4405 369.5,92.5 Z"/></g>
<g><path style="opacity:0.908" fill="#fefffe" d="M 887.5,52.5 C 889.123,56.4236 890.123,60.7569 890.5,65.5C 896.709,60.8946 903.376,57.0613 910.5,54C 925.366,51.2136 934.866,57.0469 939,71.5C 939.086,89.2048 939.752,106.871 941,124.5C 941.5,126.333 942.667,127.5 944.5,128C 946.81,128.497 949.143,128.663 951.5,128.5C 951.5,130.833 951.5,133.167 951.5,135.5C 938.833,135.5 926.167,135.5 913.5,135.5C 913.5,133.167 913.5,130.833 913.5,128.5C 918.28,129.359 921.78,127.692 924,123.5C 924.667,108.167 924.667,92.8333 924,77.5C 919.787,65.8741 911.954,62.3741 900.5,67C 896.996,68.9177 893.663,71.0843 890.5,73.5C 889.334,89.8231 889.167,106.156 890,122.5C 891.974,127.74 895.808,129.74 901.5,128.5C 901.5,130.833 901.5,133.167 901.5,135.5C 888.167,135.5 874.833,135.5 861.5,135.5C 861.5,133.167 861.5,130.833 861.5,128.5C 864.941,128.699 868.274,128.199 871.5,127C 872.893,125.829 873.727,124.329 874,122.5C 874.667,105.5 874.667,88.5 874,71.5C 871.862,67.2427 868.362,65.2427 863.5,65.5C 863.5,63.5 863.5,61.5 863.5,59.5C 872.052,58.6993 880.052,56.366 887.5,52.5 Z"/></g>
<g><path style="opacity:0.905" fill="#fefffe" d="M 611.5,53.5 C 629.128,51.3897 640.628,58.7231 646,75.5C 646.667,78.8333 646.667,82.1667 646,85.5C 645.097,86.7014 643.931,87.5348 642.5,88C 626.869,89.5395 611.202,90.3728 595.5,90.5C 594.739,112.904 605.405,123.738 627.5,123C 633.118,121.193 638.118,118.36 642.5,114.5C 644.603,116.064 645.436,118.064 645,120.5C 634.911,133.748 621.744,138.915 605.5,136C 588.257,129.391 579.591,116.725 579.5,98C 580.451,75.9211 591.118,61.0877 611.5,53.5 Z M 609.5,61.5 C 623.44,60.2736 629.94,66.6069 629,80.5C 618.28,82.1303 607.447,82.7969 596.5,82.5C 597.559,73.364 601.893,66.364 609.5,61.5 Z"/></g>
<g><path style="opacity:0.898" fill="#fefffe" d="M 707.5,53.5 C 715.515,52.708 723.181,53.8747 730.5,57C 736.372,63.2292 735.539,68.3959 728,72.5C 723.077,69.2486 717.91,66.4153 712.5,64C 696.879,61.9341 687.712,68.7674 685,84.5C 682.899,97.5261 686.399,108.693 695.5,118C 709.183,126.429 721.683,124.929 733,113.5C 734.659,114.817 735.826,116.483 736.5,118.5C 724.756,135.581 709.089,140.748 689.5,134C 675.886,126.46 668.886,114.793 668.5,99C 670.931,74.7381 683.931,59.5714 707.5,53.5 Z"/></g>
<g><path style="opacity:0.91" fill="#fefffe" d="M 1003.5,53.5 C 1028.26,50.9494 1043.76,61.616 1050,85.5C 1053.47,107.382 1045.64,123.548 1026.5,134C 1003.29,141.489 985.787,134.656 974,113.5C 966.593,91.2698 972.093,73.1032 990.5,59C 994.741,56.6512 999.075,54.8179 1003.5,53.5 Z M 1004.5,60.5 C 1013.81,59.4044 1020.97,62.7378 1026,70.5C 1032.59,84.2057 1034.26,98.5391 1031,113.5C 1025.96,129.107 1016.12,133.274 1001.5,126C 992.557,116.35 988.224,104.85 988.5,91.5C 988.373,82.3341 990.873,74.0008 996,66.5C 998.637,64.109 1001.47,62.109 1004.5,60.5 Z"/></g>
<g><path style="opacity:0.989" fill="#fe0000" d="M 1069.5,105.5 C 1078.5,105.5 1087.5,105.5 1096.5,105.5C 1096.5,115.167 1096.5,124.833 1096.5,134.5C 1087.5,134.5 1078.5,134.5 1069.5,134.5C 1069.5,124.833 1069.5,115.167 1069.5,105.5 Z"/></g>
</svg>
